<svg width="215" height="204" viewBox="0 0 215 204" fill="none" xmlns="http://www.w3.org/2000/svg">
<path d="M190.732 37.2366L188.417 33.7443C187.802 32.8173 186.855 31.7324 185.849 31.2561C183.765 30.3218 177.034 31.3992 175.707 30.8402C174.267 30.2192 167.707 27.4765 165.441 27.8076C162.518 28.2349 155.186 27.0121 152.238 27.1913C150.608 27.2903 134.181 18.6143 131.73 18.5939C129.04 18.5717 117.138 26.757 117.192 26.8785C115.473 27.1904 101.295 27.8829 96.2023 29.89C95.4093 30.3304 94.5503 34.1343 94.5503 34.1343C94.5224 34.2297 143.489 58.4504 143.589 58.277C144.902 56.0114 145.563 53.5354 145.566 50.9318C146.595 51.402 147.448 50.5247 148.073 50.5281C148.073 50.5281 149.712 48.8184 150.623 45.8932C150.993 45.5518 154.405 41.5356 156.309 41.1072C160.036 35.7737 165.047 34.2938 165.893 33.8801C166.654 33.5077 174.236 36.6193 176.229 36.861C177.361 36.998 180.623 35.5345 183.19 34.3882C184.425 34.9541 186.111 35.134 187.246 35.8547C188.059 36.3717 188.44 36.5106 188.327 37.4734C188.235 38.2549 189.002 38.796 188.785 39.5493C188.702 39.8327 189.218 40.8611 189.422 40.6685L190.687 37.5853C190.775 37.5024 190.801 37.3399 190.732 37.2366Z" fill="#4D006C"/>
<path d="M154.669 31.122C153.855 31.5029 153.164 32.1128 152.416 32.6018C151.303 33.3295 150.22 33.6536 149.081 33.2873C149.04 33.2988 148.995 33.3034 148.945 33.2946C147.628 33.0577 146.374 32.1443 145.26 31.4579C143.619 30.4459 142.008 29.381 140.32 28.4473C139.148 27.7989 137.608 26.8336 136.209 26.9104C134.445 27.0076 134.854 28.9883 135.541 30.0197C137.388 32.7922 140.954 34.7932 143.946 36.0889C145.742 36.8661 147.465 37.0043 149.248 36.0178C150.061 35.5674 150.826 35.0368 151.696 34.6945C152.723 34.2905 153.8 34.3345 154.843 34.0308C155.719 33.7757 156.725 33.0996 156.846 32.0921C157.032 30.554 155.527 30.7211 154.669 31.122Z" fill="#440062"/>
<path d="M151.198 29.5383C149.78 27.3278 148.245 26.2348 145.841 25.1772C140.357 22.7643 133.098 19.131 131.521 19.1182C129.215 19.0991 121.117 25.4061 117.192 26.8785C119.98 26.9462 122.287 28.2028 124.528 29.5563C125.025 29.8563 128.175 31.3585 128.327 30.2845C128.423 29.6099 127.583 29.1148 127.169 28.7239C126.256 27.8622 124.186 26.3843 124.87 24.8268C125.738 22.8486 129.662 26.4672 129.913 23.7552C130.002 22.789 129.571 23.1035 130.43 22.3967C131.158 21.7984 132.455 21.3319 133.35 21.4527C135.741 21.7765 137.514 22.9527 139.494 24.2591C142.173 26.0268 144.601 28.2364 147.393 29.8496C148.304 30.3759 148.152 29.9444 149.207 30.0458C149.842 30.1069 151.309 30.552 150.909 29.5506C150.897 29.519 151.27 29.651 151.198 29.5383Z" fill="#640D7E"/>
<path d="M190.417 37.237L190.29 36.571C188.986 35.4425 187.547 34.8616 186.367 34.0847C185.724 33.661 184.72 33.0717 183.953 32.8949C183.084 32.6939 182.17 33.3751 181.431 33.7642C180.04 34.498 178.614 35.0074 177.039 35.2227C174.42 35.5808 172.159 34.9519 169.83 33.8472C166.484 32.2596 162.622 30.1528 159.19 32.7379C157.596 33.9391 156.992 36.5296 154.758 36.7845C154.107 36.8589 153.588 36.6657 152.974 36.4853C151.754 36.1272 149.033 39.1551 148.182 39.899C146.688 41.2041 139.931 39.3117 137.803 39.4666C135.681 39.6215 134.753 53.5881 134.754 54.041C139.974 56.5932 143.562 58.3239 143.589 58.2771C144.902 56.0116 145.564 53.5358 145.566 50.9323C146.595 51.4024 147.972 50.4203 148.597 50.4236C148.597 50.4236 150.656 46.7214 151.567 43.7962C151.937 43.4548 155.62 41.4562 157.148 40.1636C160.875 35.1447 163.894 34.5036 164.739 34.0899C165.501 33.7175 174.34 36.8032 176.334 37.045C177.465 37.1819 180.597 35.4563 183.164 34.31C184.399 34.8759 186.006 35.1868 187.141 35.9076C187.954 36.4245 188.152 36.1961 188.039 37.159C187.947 37.9405 188.53 37.9052 188.312 38.6584C188.23 38.9418 189.27 41.333 189.475 41.1405L190.687 37.5857C190.775 37.5028 190.486 37.3403 190.417 37.237Z" fill="#40005E"/>
<path d="M113.845 26.303C108.853 26.7407 99.8378 26.9304 95.7152 28.603C94.8918 29.0741 93.7901 32.8265 93.7901 32.8265C93.7609 32.9285 143.987 59.7699 144.091 59.5846C145.455 57.162 145.932 54.7247 145.934 51.941C127.011 34.0461 122.328 30.6105 113.845 26.303Z" fill="#DE176C"/>
<path d="M95.4007 29.337C94.5773 29.8081 93.1607 33.7702 93.1607 33.7702C93.1315 33.8723 143.987 59.7699 144.091 59.5846C145.454 57.1621 121.739 30.1316 95.4007 29.337Z" fill="#C30952"/>
<path d="M155.019 92.0565C154.682 84.7918 153.121 75.4797 149.181 67.3975C142.29 53.2615 129.027 43.2457 114.711 37.1377C106.286 33.5436 97.3138 32.2822 88.73 29.2571C83.7048 27.486 78.8245 24.5933 75.843 20.0567C74.3031 17.7138 73.487 15.0765 73.4059 12.2761C73.3157 9.16526 73.9708 6.08452 73.8879 2.97371C73.8414 1.22665 73.2021 -0.263546 71.2418 0.446363C69.4522 1.08287 67.6168 2.44819 66.0184 3.90321C62.561 7.0117 59.7342 10.6644 58.0307 15.1107C51.4146 32.2634 56.8477 54.5238 73.7269 59.5393C84.9225 62.8658 95.4346 67.9806 104.688 75.1308C111.603 80.4728 117.589 86.859 124.335 92.3939C133.837 100.191 146.212 104.821 156.782 98.477C157.388 98.1131 167.698 97.3457 165.527 97.045C157.849 95.9819 155.169 95.2833 155.019 92.0565Z" fill="#2A0045"/>
<path d="M77.5686 36.0027C75.7368 34.5259 74.0908 32.2124 71.8648 31.3061C68.5532 29.9578 66.3243 32.6135 66.0813 35.6062C65.8535 38.4075 67.0835 41.5943 68.9192 43.6853C71.2226 46.2296 71.3506 48.4621 73.3464 49.931C76.9465 52.5807 81.0068 54.603 85.2894 55.8838C88.6788 56.8977 93.2532 56.8087 95.6348 53.7865C97.7931 51.0481 96.8184 47.1354 94.5134 44.8244C92.329 42.6341 80.1636 38.0945 77.5686 36.0027Z" fill="#1E0034"/>
<path d="M98.4051 144.545C96.5837 145.051 84.3697 148.679 80.041 149.894C83.8385 146.678 87.3906 143.282 90.6764 140.184C92.5608 138.407 95.0887 136.333 94.8542 133.511C94.7324 132.045 94.0788 130.67 93.2681 129.443C92.0885 127.656 90.8189 126.238 89.4821 125.145C77.9507 115.721 62.643 129.81 55.7294 138.593C51.4134 144.076 47.577 151.049 46.571 158.054C45.07 168.508 67.8094 161.025 72.1509 159.605C81.7574 156.463 90.9337 152.331 99.888 147.685C99.3819 146.644 98.8875 145.598 98.4051 144.545Z" fill="#1A022B"/>
<path d="M49.7017 161.687C45.5466 159.513 47.9555 153.06 49.5182 148.58C48.0934 151.638 47.0319 154.842 46.5705 158.054C45.4567 165.812 57.6925 163.692 65.852 161.502C60.3481 163.174 51.4466 162.6 49.7017 161.687Z" fill="#2A0045"/>
<path d="M105.984 147.198C105.978 147.195 105.972 147.193 105.967 147.191C104.909 146.772 104.091 145.9 103.723 144.824C103.54 144.29 103.356 143.758 103.169 143.226C102.953 142.611 102.683 141.89 102.04 141.603C101.361 141.299 100.611 141.688 100.003 141.991C99.6559 142.164 95.3545 144.991 95.3545 144.991C95.3545 144.991 97.3655 148.398 97.8755 149.139C102.04 150.051 108.692 156.873 107.412 159.92C106.655 161.724 105.085 162.497 103.272 163.239C96.6214 165.985 97.0763 157.804 99.6547 159.793C99.6666 160.074 100.075 160.29 100.313 160.137C101.716 159.238 100.479 157.739 99.1296 157.726C97.1134 157.708 96.2071 159.797 96.6268 161.51C98.3153 168.4 108.285 165.622 111.532 161.838C113.57 159.463 113.898 156.395 112.844 153.501C111.573 150.011 109.271 148.499 105.984 147.198Z" fill="#1A022B"/>
<path d="M85.1151 94.6718C85.133 92.2295 84.2203 89.7 82.2351 87.6073C79.9435 85.1914 76.8217 83.7335 73.6644 82.6753C67.7216 80.6832 61.4575 78.7444 55.5985 76.3155C44.1846 71.5834 38.4153 57.7503 38.1231 54.045C34.902 59.9143 35.7956 62.4143 36.9801 66.5761C37.8376 69.5894 38.6263 72.1735 37.7825 75.2803C37.2304 77.3132 35.8629 79.0034 35.4603 81.0543C34.8018 84.4504 34.0876 87.345 35.3365 90.7401C36.239 93.1841 38.4016 94.7031 40.6501 95.973C40.5441 96.0544 40.6124 108.823 60.2972 113.697C58.709 112.284 56.8888 106.414 62.6964 104.705C64.8177 104.081 67.0592 104.659 69.2309 104.585C72.1227 104.485 75.0507 104.451 77.859 103.668C81.9994 102.514 85.0826 99.0622 85.1151 94.6718Z" fill="#84288F"/>
<path d="M82.2351 87.6072C79.9435 85.1916 76.8217 83.7337 73.6647 82.6752C67.7219 80.683 61.4578 78.7446 55.5985 76.3157C44.6612 71.7813 38.9103 58.8949 38.1917 54.5664C35.5444 59.8 36.3994 62.2557 37.5211 66.1969C38.3785 69.2102 39.1672 71.9257 38.3235 75.0325C37.7713 77.0654 37.3011 78.6493 36.5779 80.6227C35.4195 83.7827 35.0152 87.1313 36.0609 90.4219C36.8441 92.8986 39.5937 93.5303 41.4008 95.4627C41.2966 95.5426 41.164 107.953 59.7387 113.024C58.5638 111.227 57.8006 107.415 60.9767 105.455C61.5516 104.994 62.2918 104.604 63.2373 104.326C65.3586 103.702 67.5998 104.28 69.7718 104.205C72.6636 104.106 75.5916 104.072 78.3996 103.289C79.4933 102.984 80.5099 102.515 81.419 101.915C83.649 100.225 85.0929 97.6676 85.1151 94.6716C85.1333 92.2297 84.2206 89.7002 82.2351 87.6072Z" fill="#2A0045"/>
<path d="M45.2666 71.501C45.2499 71.4914 37.8417 65.8583 34.4447 62.6947C34.0852 61.9809 33.6454 61.3071 33.1546 60.7116C32.7184 60.1819 32.0396 59.5463 31.2915 59.1379C30.9393 58.39 30.8678 57.5834 31.0388 56.6919C31.159 56.0659 31.358 55.4735 31.3052 54.828C31.2379 54.0035 30.6882 53.1229 29.7643 53.1264C27.3528 53.1346 28.2796 57.8614 28.7147 59.1442C28.6997 59.1564 28.6837 59.1643 28.6687 59.1772C27.5536 60.1378 27.932 61.8979 28.1729 63.1414C28.5671 65.1777 29.4873 70.2576 32.3663 70.1544C33.1632 70.1256 33.768 69.9132 34.2258 69.5773C35.9779 72.0972 45.9927 81.0765 48.115 83.2987C48.0721 83.484 50.1906 78.8867 45.2666 71.501Z" fill="#FDC588"/>
<path d="M27.6919 76.5708L18.7962 14.7093C18.7304 14.2197 19.0675 13.7677 19.5551 13.6908C20.0428 13.6142 20.5023 13.9412 20.59 14.4269L31.0525 76.0423C31.1428 76.5438 30.8031 77.0213 30.2996 77.1005L28.7331 77.3471C28.2297 77.426 27.7598 77.0758 27.6919 76.5708Z" fill="#190623"/>
<path d="M31.9008 69.2673C32.0548 68.4707 31.5585 67.9307 30.8471 67.6603C30.0009 67.3384 29.0785 67.1434 28.158 66.9663C27.9213 66.4776 28.865 65.5976 28.1625 65.1727C27.5134 64.7797 26.397 65.3342 25.9347 65.7921C24.4238 67.2892 25.5587 69.3031 27.1786 70.0526C28.516 70.6712 31.4799 71.4427 31.9008 69.2673Z" fill="#FDBD7B"/>
<path d="M30.9246 67.0929C31.1014 66.1794 30.5319 65.5596 29.7159 65.2492C28.7454 64.8801 27.6875 64.6562 26.6318 64.4531C26.3599 63.8926 27.4425 62.8834 26.6365 62.3956C25.8922 61.9451 24.6113 62.5819 24.0814 63.1072C22.3481 64.8244 23.6498 67.1339 25.5082 67.9936C27.042 68.7033 30.442 69.5884 30.9246 67.0929Z" fill="#FDC384"/>
<path d="M30.1067 64.8392C30.2835 63.9256 29.714 63.3059 28.8981 62.9954C27.9278 62.6263 26.8696 62.4024 25.8139 62.1993C25.5421 61.6388 26.6246 60.6296 25.8187 60.1418C25.0746 59.6914 23.7934 60.3281 23.2635 60.8534C21.5303 62.5707 22.832 64.8801 24.6903 65.7398C26.2242 66.4495 29.6242 67.3346 30.1067 64.8392Z" fill="#FDCC96"/>
<path d="M29.7366 62.6681C29.9134 61.7546 29.3439 61.1348 28.528 60.8244C27.5577 60.4553 26.1464 60.2262 25.0907 60.0231L24.8099 57.8181C24.1108 57.8317 23.2911 58.288 22.8934 58.682C21.1602 60.3993 22.4619 62.7088 24.3203 63.5685C25.8541 64.2781 29.254 65.1635 29.7366 62.6681Z" fill="#FDD7AE"/>
<path d="M82.2348 87.6074C79.9431 85.1919 76.8214 83.734 73.6644 82.6755C67.7216 80.6833 61.5739 78.4307 55.5982 76.3156C44.4667 72.362 38.5198 57.2785 38.2276 53.5736C36.7609 56.2458 36.0483 58.6892 35.9268 60.4396C36.16 58.8681 37.7514 56.4126 37.7514 56.4126C37.7514 58.3786 38.398 63.8797 42.6241 68.8454C44.0066 70.4811 48.8215 75.5887 45.4698 85.8791C44.5062 88.8416 46.2975 90.6462 47.3051 92.5786C48.5013 95.0943 49.6846 96.6149 49.0316 98.7197C48.3996 100.825 50.1609 105.501 56.4174 110.41C53.2956 111.643 44.2308 104.263 42.9691 102.903C45.4035 106.746 50.4421 110.969 60.4018 113.435C58.8136 112.022 56.8884 106.414 62.6961 104.705C64.8176 104.081 67.0589 104.66 69.2306 104.585C72.1227 104.486 75.0503 104.451 77.8586 103.669C81.9991 102.515 85.0826 99.0626 85.1148 94.6719C85.133 92.2299 84.2203 89.7001 82.2348 87.6074Z" fill="#781988"/>
<path d="M84.3269 90.7896C83.9667 94.3821 81.3026 97.2639 77.869 98.819C73.1857 100.94 67.5439 103.147 62.522 101.378C61.479 101.01 60.408 100.67 59.6463 99.8627C58.9617 99.1364 58.6681 98.3238 57.9852 97.6098C56.2187 95.7467 55.1756 97.5986 54.7635 99.6588C53.9628 103.66 54.7019 107.715 58.7215 109.243C58.7388 107.332 59.7034 105.586 62.6961 104.705C64.8173 104.081 67.0589 104.659 69.2305 104.585C72.1224 104.485 75.0503 104.451 77.8586 103.668C81.9988 102.514 85.0823 99.0623 85.1148 94.6718C85.1242 93.3755 84.863 92.0564 84.3269 90.7896Z" fill="#690C80"/>
<path d="M140.272 81.553C138.39 83.4642 136.371 85.079 135.104 84.2678C131.961 82.2534 132.229 77.942 132.053 74.6835C131.846 70.8337 131.45 66.9827 130.646 63.2086C129.06 55.7544 125.734 48.706 119.908 43.6389C113.362 37.9467 104.587 34.9953 96.0047 36.0696C87.2442 37.1664 78.9769 41.6525 72.8634 47.9592C71.8459 49.0089 70.6501 49.9739 69.9777 51.2592C67.2423 56.6197 63.6379 59.9872 58.0263 59.6874C58.9767 60.4671 61.5725 62.7957 62.7531 61.5131C59.6332 65.1272 54.6932 66.6486 50.5312 65.4261C50.9027 65.9789 53.8046 68.7963 58.1501 67.647C56.3696 72.0074 56.2189 76.6797 57.1396 81.3091C57.7072 84.1636 58.654 86.9281 59.7073 89.6359C60.9408 92.8065 63.1159 95.665 62.4333 100.394C63.9849 99.5083 65.1705 100.112 66.5595 99.2046C67.0813 99.5266 72.173 104.198 73.1085 105.4C73.3734 105.741 97.3404 123.577 115.143 109.084C114.055 112.06 115.875 113.488 115.875 113.488C116.321 108.954 119.095 107.177 123.124 105.221C125.481 104.077 128.511 103.192 129.844 100.931C138.689 105.1 140.797 95.168 140.797 95.168C139.494 97.3163 136.371 97.5284 135.403 96.0808C134.844 95.2459 133.861 93.5056 133.89 92.5257C133.923 90.7517 133.448 89.768 134.214 88.1946C136.577 88.1698 139.876 85.5584 140.272 81.553Z" fill="#DE176C"/>
<path d="M65.5365 84.3581C67.6225 89.4031 68.7293 95.4874 65.809 100.276C66.15 100.121 66.4696 99.9508 66.7539 99.7694C69.1822 94.9808 68.1316 89.1395 66.0914 84.2054C65.952 83.8679 65.395 84.0155 65.5365 84.3581Z" fill="#C30952"/>
<path d="M55.3027 68.4516C56.2303 68.5212 57.2332 68.4589 58.272 68.2017C57.2952 68.352 56.3038 68.4349 55.3027 68.4516Z" fill="#C30952"/>
<path d="M74.0554 56.0352C72.5829 59.1144 70.4006 61.8896 67.7527 64.0425C64.9957 66.2843 61.7947 67.6371 58.4087 68.1808C67.7818 67.0427 71.3379 63.0465 74.5523 56.3259C74.7115 55.9933 74.2155 55.7008 74.0554 56.0352Z" fill="#C30952"/>
<path d="M77.3052 106.183C84.0635 108.107 91.4921 108.191 98.5326 106.684C100.567 100.979 101.207 96.4924 101.134 96.4976C94.5598 96.9386 81.0338 96.9893 81.4016 97.0163C81.4043 97.0163 81.4071 97.0166 81.4098 97.0166C81.4089 97.0224 81.4137 97.0324 81.4241 97.0464C82.5096 98.5067 82.5327 100.49 81.2093 101.739C79.7681 103.098 78.4636 104.589 77.3052 106.183Z" fill="#FDC588"/>
<path d="M161.946 170.77L1.87206 92.1059C1.22815 91.7894 0.449691 92.0549 0.133503 92.6985C-0.182983 93.3424 0.0824761 94.1206 0.726393 94.4371L160.801 173.102C161.445 173.418 162.223 173.153 162.539 172.509C162.856 171.865 162.59 171.087 161.946 170.77Z" fill="#190623"/>
<path d="M192.072 175.651C192.072 175.651 189.118 175.243 187.709 175.062C188.734 175.123 189.418 173.625 189.418 173.625C189.418 173.625 190.617 171.102 188.816 169.63C188.816 169.63 185.446 169.378 182.637 169.131C184.227 168.983 188.479 167.086 188.479 167.086C182.732 167.458 178.232 167.794 172.959 165.854C177.713 166.298 181.644 166.142 185.041 165.153C171.916 164.182 162.256 153.315 136.764 156.623C136.764 156.623 127.541 149.634 127.465 149.802C127.342 149.871 123.382 157.553 122.473 159.088C122.409 159.197 129.524 162.727 133.169 163.334C133.182 163.42 139.773 181.651 157.943 191.131C159.623 192.007 160.957 193.614 162.224 195.051C159.053 190.6 158.316 190.317 156.685 189.099C159.214 190.559 161.547 192.372 163.771 194.299C165.313 195.635 166.626 197.206 167.974 198.738C170.181 201.248 172.139 203.282 172.139 203.282C170.928 201.909 169.758 200.124 168.554 198.551C167.881 197.672 167.158 196.835 166.397 196.033C168.42 197.301 172.95 201.811 172.95 201.811C173.687 201.604 174.483 201.184 174.932 200.8C175.872 201.306 176.433 202.017 176.433 202.017C178.037 202.426 180.416 200.344 179.76 197.239C179.426 195.661 182.024 194.08 183.176 193.863C184.314 193.649 183.493 190.975 186.407 190.82C186.407 190.82 185 188.888 184.605 188.261C185.544 188.488 187.302 188.636 187.302 188.636C187.302 188.636 186.621 185.28 188.739 183.077C190.491 181.251 192.028 178.456 192.028 178.456C189.702 179.155 188.44 176.675 187.193 176.131C188.759 176.172 192.072 175.651 192.072 175.651Z" fill="#F2D17F"/>
<path d="M177.587 194.237C176.085 194.792 176.871 197.601 176.702 197.398L174.258 195.206C174.235 195.651 173.988 197.526 173.804 197.262C168.73 189.987 160.445 185.711 152.711 182.065C154.186 183.251 155.119 184.493 155.574 185.742C152.045 183.566 147.205 181.079 143.772 178.76C144.399 180.029 146.475 181.67 147.303 182.811C150.562 186.01 153.186 188.649 157.943 191.13C159.623 192.007 161.845 191.838 163.111 193.275C160.653 189.819 158.316 190.316 156.685 189.099C159.215 190.558 163.027 190.447 165.251 192.375C166.793 193.711 166.626 197.206 167.973 198.737C170.181 201.248 172.213 200.691 172.213 200.691C171.002 199.319 169.758 200.124 168.554 198.551C167.882 197.672 167.158 196.835 166.397 196.033C168.42 197.301 172.95 201.811 172.95 201.811C173.687 201.604 174.483 201.184 174.931 200.8C175.872 201.305 177.173 201.721 177.173 201.721C178.776 202.13 179.4 199.835 179.76 196.202C180.137 192.511 181.238 193.33 181.358 193.888C181.464 194.45 182.265 192.398 183.104 191.713C178.211 193.493 179.1 193.677 177.587 194.237Z" fill="#E6C473"/>
<path d="M189.939 175.58C189.939 175.58 187.341 175.883 185.932 175.702C186.957 175.762 188.281 174.407 188.281 174.407C188.281 174.407 190.291 172.599 188.461 169.985C188.461 169.985 185.446 169.378 182.637 169.131C184.227 168.983 188.479 167.086 188.479 167.086C182.732 167.458 178.232 167.794 172.959 165.854C177.713 166.298 181.644 166.142 185.041 165.153C171.916 164.182 162.256 153.315 136.765 156.623C136.765 156.623 128.252 148.677 128.176 148.845C128.11 148.882 126.778 151.475 125.106 154.545C125.882 155.582 126.255 156.419 127.143 157.359C127.181 156.838 127.298 156.336 127.345 155.788C127.364 155.565 127.573 155.438 127.778 155.54C132.995 158.13 138.415 160.1 144.207 160.882C144.498 160.921 137.799 161.352 138.177 164.316C138.407 166.115 139.852 167.556 141.329 168.608C142.953 169.765 144.875 170.552 146.741 171.227C147.762 171.596 148.798 171.923 149.833 172.252C150.351 172.416 150.87 172.579 151.386 172.747C151.711 172.853 152.727 173.005 152.93 173.267C152.526 172.746 152.241 172.122 152.101 171.403C152.067 171.228 159.836 170.895 166.171 178.138C166.278 177.086 166.286 176.031 166.287 174.971C166.287 174.77 173.797 182.891 177.526 186.838C177.793 185.391 177.881 183.902 177.068 182.598C185.543 184.402 185.993 186.967 186.812 187.93C187.022 186.613 187.108 183.499 188.242 182.224C190.034 180.211 190.891 179.238 190.891 179.238C189.844 178.373 188.44 176.675 187.194 176.131C188.76 176.172 189.939 175.58 189.939 175.58Z" fill="#E6C473"/>
<path d="M136.765 156.622C136.765 156.622 135.691 155.544 134.304 154.161C133.795 156.843 131.613 161.16 129.806 162.645C131.062 162.932 132.248 163.18 133.169 163.333C133.17 163.337 136.265 160.44 136.765 156.622Z" fill="#4D006C"/>
<path d="M214.204 150.437C213.138 149.623 210.653 149.372 209.835 150.643C209.122 151.752 207.09 151.867 205.546 152.033C204.24 152.193 203.27 152.311 201.968 152.197C199.444 151.975 197.785 152.38 195.693 153.887C193.462 155.494 191.098 157.326 188.127 157.271C188.036 157.269 187.968 157.303 187.922 157.353C186.748 156.563 185.278 156.092 183.995 155.764C181.514 155.13 178.99 155.152 176.476 155.572C173.894 156.003 171.163 157.015 168.503 157.007C168.818 155.474 168.892 153.488 168.677 151.953C169.766 150.318 172.531 144.227 171.442 142.873C170.202 141.34 163.49 145.87 161.529 147.395C161.242 147.398 158.485 146.978 158.2 146.994C158.575 145.784 160.22 141.918 159.91 141.08C159.877 140.992 159.89 140.792 159.788 140.775C158.639 140.58 154.455 144.374 152.651 148.244C151.094 148.891 149.21 149.774 148.724 151.537C147.834 154.771 150.062 157.565 152.555 159.317C153.807 160.197 155.465 161.03 157.242 161.601C154.04 164.381 149.267 163.311 145.327 163.319C143.84 163.322 142.438 163.283 141.827 164.851C141.404 165.936 141.587 167.268 142.544 168.012C143.858 169.034 145.098 168.138 146.378 167.584C148.53 166.653 151.108 167.466 153.393 167.032C154.751 166.775 156.098 166.353 157.334 165.736C159.398 164.706 161.872 164.969 163.768 166.283C163.78 166.292 163.792 166.3 163.804 166.308C165.75 167.657 167.862 168.825 170.035 169.764C171.694 170.482 173.411 170.979 175.151 171.224C174.234 171.599 173.578 172.226 173.773 173.287C174.116 175.162 176.445 177.649 178.308 178.087C178.895 178.225 179.664 178.196 180.097 177.72C180.4 177.387 180.37 177.032 180.466 176.629C180.755 175.422 181.212 174.922 182.278 174.396C184.3 173.398 185.613 171.668 185.545 169.422C187.916 168.157 189.834 166.245 190.205 163.388C190.412 161.792 190.248 160.019 189.301 158.669C190.562 158.691 192.274 158.49 193.429 157.907C195.526 156.851 196.3 155.623 198.76 155.171C201.264 154.711 202.681 154.687 205.199 154.717C207.42 154.747 208.474 154.711 210.428 153.987C211.714 153.514 212.771 153.411 214.009 153.014C215.144 152.695 215.085 151.173 214.204 150.437Z" fill="#190623"/>
<path d="M154.284 147.837C157.162 146.639 157.92 146.947 157.896 146.949C158.164 146.089 158.855 143.742 159.161 142.14C159.207 141.9 158.942 141.728 158.739 141.862C157.253 142.844 154.351 146.774 154.284 147.837Z" fill="#4D006C"/>
<path d="M157.376 144.892C157.609 143.808 158.435 143.23 158.772 142.197C158.788 142.147 158.744 141.755 158.775 141.724C158.738 141.73 158.453 142.231 158.419 142.254C156.933 143.235 154.351 146.17 154.284 147.234C157.162 146.035 157.92 146.947 157.896 146.948C157.949 146.778 158.02 146.546 158.1 146.276C157.546 146.095 157.21 145.663 157.376 144.892Z" fill="#3A0054"/>
<path d="M163.205 148.179C164.888 148.715 166.833 149.891 167.851 151.462C168.688 150.13 170.879 145.99 170.757 143.824C170.053 142.637 163.928 146.267 163.205 148.179Z" fill="#4D006C"/>
<path d="M167.172 148.589C166.801 147.943 166.634 147.344 166.991 146.671C167.656 145.415 169.452 144.491 170.969 144.211C169.466 143.873 164.078 146.523 163.218 148.055C164.819 148.776 166.799 150.231 167.61 151.842C167.737 151.696 167.89 151.499 168.06 151.265C167.925 150.355 167.698 149.504 167.172 148.589Z" fill="#3A0054"/>
<path d="M142.484 164.661C142.156 164.294 140.824 165.217 140.885 165.373C140.922 165.466 141.625 165.083 142.195 165.189C142.484 165.242 142.709 164.916 142.484 164.661Z" fill="#190623"/>
<path d="M142.609 165.839C142.281 165.472 140.95 166.395 141.011 166.551C141.048 166.644 141.75 166.261 142.321 166.367C142.609 166.42 142.834 166.094 142.609 165.839Z" fill="#190623"/>
<path d="M143.029 167.017C142.701 166.649 141.37 167.573 141.431 167.729C141.467 167.822 142.17 167.439 142.741 167.545C143.029 167.598 143.254 167.272 143.029 167.017Z" fill="#190623"/>
<path d="M180.007 177.254C180.434 177.498 179.807 178.992 179.642 178.965C179.543 178.948 179.772 178.181 179.551 177.645C179.439 177.374 179.711 177.087 180.007 177.254Z" fill="#190623"/>
<path d="M178.829 177.375C179.256 177.619 178.628 179.113 178.464 179.086C178.365 179.069 178.594 178.302 178.372 177.766C178.26 177.495 178.533 177.207 178.829 177.375Z" fill="#190623"/>
<path d="M177.59 177.208C178.017 177.453 177.389 178.947 177.224 178.919C177.125 178.903 177.355 178.135 177.133 177.6C177.021 177.329 177.294 177.041 177.59 177.208Z" fill="#190623"/>
<path d="M81.4242 97.0464C82.1996 98.0897 82.421 99.3967 82.0082 100.515C82.5316 104.245 91.6444 100.516 93.7265 99.79C96.2253 98.9189 101.148 96.4966 101.134 96.4976C94.5599 96.9386 81.0336 96.9896 81.4014 97.0163C81.4041 97.0166 81.4069 97.0166 81.4096 97.0169C81.409 97.0227 81.4138 97.0324 81.4242 97.0464Z" fill="#FDBB74"/>
<path d="M104.089 153.375C102.225 153.061 89.6243 151.17 85.1886 150.435C89.9912 149.132 94.6477 147.562 98.9373 146.149C101.397 145.338 104.565 144.531 105.55 141.876C106.061 140.496 106.051 138.974 105.837 137.518C105.526 135.4 104.978 133.578 104.23 132.022C97.7801 118.599 77.944 124.87 67.9592 129.895C61.726 133.032 55.2957 137.721 51.4156 143.639C45.6249 152.471 69.3919 155.333 73.9263 155.887C83.9588 157.112 94.0211 157.26 104.101 156.848C104.083 155.69 104.079 154.533 104.089 153.375Z" fill="#59077A"/>
<path d="M105.838 137.519C105.527 135.4 104.978 133.578 104.23 132.022C97.7805 118.599 77.9444 124.87 67.9596 129.895C67.3211 130.216 66.6812 130.558 66.0415 130.911C68.5242 130.179 71.1275 130.372 73.3939 132.041C75.0164 133.236 76.2839 134.834 77.7124 136.238C79.4418 137.938 81.2739 138.928 83.5923 139.594C86.1066 140.317 88.6631 140.661 91.2809 140.634C93.2597 140.613 95.1833 140.291 97.0612 141.1C99.4835 142.144 100.027 144.205 98.9274 146.153C98.9307 146.151 98.934 146.15 98.9374 146.149C101.397 145.339 104.566 144.532 105.55 141.876C106.061 140.497 106.052 138.974 105.838 137.519Z" fill="#4B006F"/>
<path d="M105.838 137.519C105.527 135.4 104.978 133.578 104.23 132.022C103.372 130.237 102.272 128.809 100.995 127.671C101.752 128.899 102.095 130.378 102.031 131.813C101.886 135.08 102.857 140.041 100.553 142.247C97.6638 145.014 90.7506 149.515 66.939 149.115C71.046 149.916 76.4618 150.645 85.1889 150.435C89.9915 149.132 94.6477 147.563 98.937 146.149C101.397 145.339 104.565 144.532 105.55 141.876C106.061 140.497 106.052 138.974 105.838 137.519Z" fill="#4B006F"/>
<path d="M51.7876 145.573C52.1545 141.985 56.9483 137.845 59.4635 135.448C60.0139 134.924 60.5904 134.427 61.1787 133.945C57.366 136.627 53.877 139.885 51.4156 143.639C48.0976 148.7 54.4839 151.799 61.3956 153.629C57.5288 151.943 51.3211 150.134 51.7876 145.573Z" fill="#84288F"/>
<path d="M111.415 159.824C111.41 159.818 111.405 159.812 111.399 159.807C110.437 158.786 109.98 157.386 110.131 155.992C110.206 155.301 110.279 154.61 110.348 153.919C110.427 153.12 110.503 152.175 109.936 151.518C109.337 150.824 108.296 150.866 107.458 150.887C106.981 150.899 100.703 151.808 100.703 151.808C100.703 151.808 101.167 156.661 101.35 157.754C105.522 160.948 109.383 172.038 106.364 174.771C104.576 176.389 102.419 176.432 100.007 176.314C91.1493 175.905 95.9306 167.01 97.77 170.577C97.6367 170.896 97.9796 171.351 98.325 171.306C100.361 171.035 99.7634 168.715 98.2636 167.996C96.0227 166.922 93.9193 168.781 93.4932 170.912C91.7783 179.485 104.359 181.592 109.961 179.065C113.477 177.478 115.445 174.226 115.78 170.444C116.184 165.884 114.405 162.993 111.415 159.824Z" fill="#4D006C"/>
<path d="M110.024 159.824C110.019 159.818 110.014 159.813 110.009 159.807C109.047 158.786 108.59 157.387 108.741 155.992C108.815 155.301 108.889 154.611 108.957 153.919C109.037 153.12 109.113 152.175 108.545 151.518C108.201 151.12 107.712 150.968 107.199 150.911C105.909 151.055 100.703 151.808 100.703 151.808C100.703 151.808 101.167 156.662 101.35 157.755C105.522 160.948 109.384 172.038 106.364 174.772C104.966 176.037 103.34 176.336 101.544 176.351V179.804C102.31 179.936 103.088 180.017 103.859 180.047C105.626 179.978 107.283 179.645 108.57 179.065C112.086 177.478 114.055 174.226 114.39 170.444C114.793 165.884 113.014 162.993 110.024 159.824Z" fill="#742088"/>
<path d="M100.007 176.314C91.7871 175.934 95.3113 168.255 97.332 169.999C96.9606 170.352 97.0271 170.967 97.3518 171.333C97.6294 171.646 98.0816 171.783 98.492 171.703C99.3096 171.543 99.6944 170.683 99.6228 169.919C99.5456 169.102 99.0007 168.349 98.2633 167.996C96.0226 166.922 93.9193 168.781 93.4932 170.912C92.4161 176.297 96.9788 179.13 101.91 179.866C102.096 178.695 102.196 177.524 102.233 176.331C101.519 176.372 100.776 176.352 100.007 176.314Z" fill="#4D006C"/>
<path d="M105.276 153.195C105.106 152.603 104.24 152.645 103.765 152.695C103.156 152.759 102.446 152.921 102.42 153.664C102.401 154.202 102.33 154.761 102.464 155.291C102.559 155.67 102.816 155.772 103.181 155.806C103.717 155.857 104.281 155.8 104.801 155.655C105.276 155.522 105.313 155.281 105.351 154.811C105.393 154.3 105.418 153.694 105.276 153.195ZM104.801 154.89C104.737 155.023 104.65 155.132 104.534 155.201C104.114 155.454 103.038 155.553 102.952 154.872C102.902 154.482 102.725 153.662 103.078 153.358C103.31 153.159 103.731 153.189 104.015 153.201C104.299 153.214 104.652 153.212 104.794 153.506C104.958 153.843 104.997 154.478 104.801 154.89Z" fill="#E79811"/>
<path d="M81.2093 101.739C80.842 101.369 73.4094 108.011 71.0704 119.533C70.6066 121.819 70.7217 124.948 71.0188 127.846C71.2882 130.473 73.5984 132.425 76.2317 132.225C97.1029 130.637 98.3673 111.253 100.553 102.603C100.477 102.906 97.143 99.79 97.143 99.79C96.7014 100.658 91.2017 106.488 83.7661 106.053C79.7735 105.819 80.4587 102.655 81.2093 101.739Z" fill="#4B006F"/>
<path d="M116.038 135.886C112.117 136.433 110.844 137.635 109.184 136.2C107.413 134.669 106.572 132.346 106.721 130.01C106.748 129.577 106.752 129.16 106.706 128.77C106.449 126.584 105.041 124.846 104.517 122.752C102.576 114.983 106.783 108.58 109.908 101.708C107.95 96.4868 102.264 95.2224 97.8988 98.2275C92.0118 112.8 73.6998 116.15 64.939 114.522C65.715 116.148 66.7489 118.416 68.2238 119.37C70.4122 120.784 72.984 121.608 74.5142 123.745C76.9447 127.139 79.611 130.38 83.0199 132.605C87.6795 135.623 91.4608 138.903 96.5328 137.54C98.0967 138.32 98.4266 139.955 99.8606 140.938C101.343 141.954 103.045 142.643 104.806 142.988C108.077 143.629 113.721 139.739 116.038 135.886Z" fill="#2A0045"/>
<path d="M77.4257 117.626C74.0331 118.072 62.9472 118.955 62.1815 118.943C60.668 118.918 59.8734 118.307 59.1709 117.022C58.8095 116.362 58.3019 115.752 57.4767 116.229C56.6827 116.688 56.7237 117.675 57.0536 118.402C57.4491 119.272 58.1625 119.917 58.9884 120.359C58.7505 120.655 58.4757 120.907 58.141 121.104C57.826 121.29 57.4609 121.391 57.1806 121.634C56.8018 121.963 56.6448 122.46 56.7095 122.953C56.8143 123.751 57.395 124.198 58.0802 124.355C58.1479 125.21 58.7278 125.748 59.4537 126.01C59.4503 126.061 59.4576 126.116 59.4916 126.171C59.9418 126.91 60.6394 127.342 61.4012 127.448C61.4048 127.51 61.4319 127.573 61.4984 127.626C62.5958 128.505 63.9568 129.073 65.3865 128.821C67.0302 128.533 71.065 125.092 71.5182 124.029C72.8133 123.5 78.9824 121.988 79.3872 121.732C80.8512 120.803 77.6183 117.6 77.4257 117.626Z" fill="#FDC588"/>
<path d="M66.334 115.342C74.2162 115.849 76.129 118.786 77.4278 120.397C79.7346 123.261 81.9702 124.908 83.9794 127.985C85.1959 129.848 86.6145 132.444 88.8163 133.051C91.0414 133.665 92.3632 133.661 94.6048 134.121C96.5426 134.518 97.7546 135.66 98.794 137.227C100.117 139.221 101.565 141.29 103.739 142.29C104.67 142.718 105.636 143.061 106.623 143.335C110.177 143.256 115.177 138.63 116.783 135.257C112.88 136.344 110.686 137.844 109.026 136.409C107.255 134.879 106.415 132.556 106.563 130.22C106.59 129.787 106.594 129.37 106.549 128.979C106.291 126.794 104.883 125.056 104.36 122.962C102.418 115.193 106.625 108.79 109.75 101.917C107.792 96.6965 102.106 95.4324 97.7411 98.4375C91.8542 113.011 73.6734 116.097 64.9126 114.469C65.3412 115.368 65.5832 116.516 66.5005 117.247C66.4686 117.17 66.1673 115.332 66.334 115.342Z" fill="#84288F"/>
<path d="M127.722 66.2548C127.639 65.7798 127.538 65.306 127.42 64.833C124.955 55.0392 115.366 49.0509 106.239 46.3826C97.7979 43.9142 86.2676 42.9517 78.1446 46.967C75.7118 48.1698 75.4791 51.3073 74.2387 53.4331C69.5888 61.4018 64.8039 66.7727 64.3319 76.8978C63.7344 89.7153 75.5939 94.7937 77.5903 97.044C78.0177 97.5257 78.4444 98.0606 79.0537 98.269C79.6235 98.4637 80.2452 98.3346 80.8406 98.2447C86.0289 97.4586 91.1644 99.0839 96.3567 98.9132C104.733 98.6377 113.007 95.1156 119.054 89.3116C125.115 83.4931 129.208 74.7319 127.722 66.2548Z" fill="#FDC588"/>
<path d="M127.722 66.2548C127.639 65.7798 127.538 65.306 127.419 64.8331C124.955 55.0393 115.365 49.0506 106.239 46.3823C97.7975 43.9139 86.2673 42.9517 78.1443 46.967C76.314 47.8715 75.729 49.8713 75.0234 51.7113C76.2703 54.5521 78.4113 57.0223 80.6564 59.0971C83.5543 61.7754 86.9139 63.9201 90.7582 64.9312C94.5151 65.9192 98.4332 65.8773 102.286 65.7491C105.249 65.6507 108.224 65.7546 111.207 65.8861C121.825 66.3535 118.224 85.0239 114.559 89.0763C112.396 91.4684 108.42 95.5084 105.666 97.27C110.65 95.659 115.285 92.9291 119.053 89.3116C125.114 83.4931 129.208 74.732 127.722 66.2548Z" fill="#FDAF5C"/>
<path d="M83.4493 79.1957C82.6262 78.8989 82.7693 77.7274 82.4188 77.0765C82.1706 76.6155 81.7278 76.2471 81.1783 76.2932C79.9713 76.3947 79.4492 77.8632 79.7708 78.8734C80.0348 77.7432 80.0645 77.5179 80.5144 77.1136C81.3736 76.3418 81.9786 77.4207 82.1339 78.0628C82.3112 78.7966 82.7447 79.2142 83.4493 79.1957Z" fill="#FDAF5C"/>
<path d="M83.5807 89.4259C83.5661 89.2919 83.5463 89.1565 83.5214 89.0207C83.2994 87.7994 82.6828 86.5301 81.8943 85.6132C81.5548 85.218 81.0554 84.8086 80.5215 84.7311C79.9793 84.6522 79.3749 84.8593 78.9539 85.201C78.1742 85.834 77.985 86.9244 77.934 87.8711C77.886 88.7622 78.0342 89.6816 78.4358 90.4838C78.8798 91.3716 79.6428 92.0516 80.6023 92.3308C81.3655 92.5528 82.1877 92.3138 82.7721 91.7914C83.4431 91.1915 83.6763 90.3019 83.5807 89.4259Z" fill="#560826"/>
<path d="M83.522 89.0207C83.4771 88.7732 83.4115 88.5238 83.3358 88.2756C81.5365 88.1739 79.5474 88.6189 78.0005 89.079C78.0779 89.5662 78.2152 90.0431 78.4357 90.4835C78.8801 91.3716 79.6431 92.0516 80.6026 92.3305C81.3655 92.5525 82.1877 92.3138 82.7724 91.791C83.4433 91.1915 83.6763 90.3018 83.5809 89.4259C83.5661 89.2916 83.5466 89.1565 83.522 89.0207Z" fill="#C30952"/>
<path d="M83.6749 89.0462C83.4404 87.7569 82.7898 86.4168 81.9573 85.4485C81.5989 85.0315 81.0716 84.599 80.5079 84.5173C79.9353 84.4341 79.2969 84.6527 78.8522 85.0136C78.0291 85.6815 77.8296 86.8329 77.7758 87.8325C77.7251 88.7732 77.8815 89.7439 78.3052 90.5907C78.7742 91.5283 79.5803 92.2463 80.5932 92.5409C81.3987 92.7751 82.2668 92.523 82.884 91.9714C83.5926 91.3382 83.8386 90.3987 83.7377 89.4742C83.7223 89.3323 83.701 89.1896 83.6749 89.0462ZM81.5293 90.9081C81.2001 91.0296 80.8177 91.0278 80.4046 90.8464C80.0131 90.6748 79.6866 90.3772 79.4226 90.0406C78.7234 89.1489 78.4382 87.9576 78.6056 86.8369C78.7499 85.8695 79.4223 84.7809 80.5583 85.1378C81.0774 85.3009 81.4677 85.7061 81.7674 86.1444C82.3306 86.9669 82.7017 88.0576 82.6817 89.0599C82.6656 89.8727 82.2127 90.656 81.5293 90.9081Z" fill="#E16F4A"/>
<path d="M104.852 75.5735C104.077 75.8369 103.149 76.0853 102.336 75.7947C103.276 75.336 103.428 74.6754 103.455 74.4005C102.92 74.8959 102.231 75.0162 101.504 74.9952C101.85 74.7556 102.251 74.5806 102.467 73.9334C102.17 74.153 101.495 74.2751 100.995 74.1393C100.899 73.8869 100.807 73.6321 100.7 73.3928C100.361 72.6386 99.9519 71.9069 99.3673 71.314C96.9237 68.8365 93.7698 71.0151 92.6278 73.5723C91.7794 75.4721 92.9303 73.4079 96.517 73.5713C97.338 73.6087 98.1493 73.838 98.8539 74.2645C99.3217 74.5478 99.6901 74.9652 100.019 75.3956C100.321 75.791 100.59 76.2299 100.993 76.5227C103.036 78.0095 105.114 75.4845 104.852 75.5735Z" fill="#2A0045"/>
<path d="M69.3554 65.4593C69.78 65.9538 70.3164 66.5011 70.9919 66.6311C70.533 65.9352 70.6964 65.4207 70.7887 65.2209C70.9555 65.7779 71.3798 66.1397 71.8867 66.42C71.7467 66.1154 71.5426 65.8323 71.6568 65.3007C71.771 65.5714 72.185 65.9292 72.5832 66.0388C72.7514 65.9046 72.9173 65.7667 73.088 65.6464C74.2671 64.813 75.7034 64.2583 77.0553 65.066C78.4157 65.8787 78.7204 67.5824 78.5539 69.0421C78.3656 70.6898 78.4133 68.8067 75.8862 67.4648C75.3076 67.1575 74.658 66.9855 74.0016 66.9925C73.5657 66.9971 73.1439 67.1344 72.7435 67.2966C72.376 67.4454 72.0134 67.6373 71.6185 67.6753C69.6139 67.8667 69.2118 65.2919 69.3554 65.4593Z" fill="#2A0045"/>
<path d="M102.28 78.176C100.19 77.6532 99.2401 75.7889 97.3397 75.019C95.8334 74.4085 94.5499 74.6478 93.1035 75.8889C95.1461 74.7222 97.2282 75.2377 98.879 76.8016C99.8536 77.7246 101.096 78.1857 102.28 78.176Z" fill="#FDAF5C"/>
<path d="M74.8372 68.1935C72.9972 67.8488 70.5768 69.4619 69.4648 67.2264C69.6756 68.4781 70.4741 69.1047 71.6951 69.0418C72.5948 68.9957 73.4838 68.5765 74.3819 68.712C76.03 68.961 77.0454 69.5154 77.8521 70.3761C76.9837 68.9547 76.0388 68.4186 74.8372 68.1935Z" fill="#FDAF5C"/>
<path d="M95.6132 79.1759H95.5412C94.8007 79.1759 94.7995 80.327 95.5412 80.327H95.6132C96.3537 80.327 96.3552 79.1759 95.6132 79.1759Z" fill="#FDAF5C"/>
<path d="M99.4261 79.6074C98.6856 79.6074 98.684 80.7586 99.4261 80.7586C100.167 80.7586 100.168 79.6074 99.4261 79.6074Z" fill="#FDAF5C"/>
<path d="M102.52 79.7517V79.8237C102.52 80.5642 103.67 80.5654 103.67 79.8237V79.7517C103.67 79.0112 102.52 79.0097 102.52 79.7517Z" fill="#FDAF5C"/>
<path d="M97.4119 81.6217C96.6714 81.6217 96.6699 82.7728 97.4119 82.7728C98.1524 82.7728 98.1539 81.6217 97.4119 81.6217Z" fill="#FDAF5C"/>
<path d="M101.786 81.9113C101.752 81.6024 101.546 81.3357 101.211 81.3357C100.926 81.3357 100.601 81.6002 100.635 81.9113C100.638 81.935 100.64 81.9586 100.643 81.9823C100.677 82.2912 100.883 82.5579 101.218 82.5579C101.503 82.5579 101.828 82.2934 101.794 81.9823C101.791 81.9586 101.789 81.935 101.786 81.9113Z" fill="#FDAF5C"/>
<path d="M99.5701 83.4922C98.8296 83.4922 98.8281 84.6433 99.5701 84.6433C100.311 84.6433 100.312 83.4922 99.5701 83.4922Z" fill="#FDAF5C"/>
<path d="M68.7714 70.4077H68.6994C67.9589 70.4077 67.9577 71.5589 68.6994 71.5589H68.7714C69.5119 71.5589 69.5134 70.4077 68.7714 70.4077Z" fill="#FDAF5C"/>
<path d="M71.4329 71.6306C70.6924 71.6306 70.6909 72.7818 71.4329 72.7818C72.1734 72.7818 72.1749 71.6306 71.4329 71.6306Z" fill="#FDAF5C"/>
<path d="M73.519 72.9977V73.0697C73.519 73.8102 74.6699 73.8114 74.6699 73.0697V72.9977C74.6699 72.2569 73.519 72.2557 73.519 72.9977Z" fill="#FDAF5C"/>
<path d="M69.347 72.9254C68.6065 72.9254 68.6049 74.0766 69.347 74.0766C70.0875 74.0766 70.089 72.9254 69.347 72.9254Z" fill="#FDAF5C"/>
<path d="M72.1526 74.2921C71.4121 74.2921 71.4106 75.4433 72.1526 75.4433C72.8931 75.4433 72.8946 74.2921 72.1526 74.2921Z" fill="#FDAF5C"/>
<path d="M70.0662 75.6589C69.3257 75.6589 69.3242 76.8101 70.0662 76.8101C70.8067 76.8101 70.8082 75.6589 70.0662 75.6589Z" fill="#FDAF5C"/>
<path d="M131.555 50.9455C126.772 43.7511 118.811 38.9293 110.16 36.5618C105.828 35.376 101.34 34.7643 96.8516 34.6726C96.3125 34.6616 95.773 34.6598 95.2339 34.6677C89.3491 34.7555 81.9344 35.8012 77.6734 40.2448C74.0308 44.0436 72.9039 49.535 75.006 54.3962C78.9427 63.5 92.7509 65.8859 101.713 64.8301C99.4755 64.6197 93.9813 64.3073 92.0034 63.2023C90.9073 62.5903 90.4842 61.793 90.3414 60.8381C93.4941 64.7617 99.7525 64.4457 104.177 63.9868C105.802 63.8182 107.319 64.0408 108.949 63.9157C110.782 63.7747 112.486 63.4949 114.178 64.3338C118.746 66.5981 119.295 71.5639 118.554 76.0546C118.494 76.4169 118.632 77.4066 118.547 77.7638C118.531 77.83 118.515 77.8962 118.498 77.9624C117.916 80.238 116.962 83.3439 115.359 85.0509C113.298 87.2438 112.793 88.6289 108.891 85.3798C108.891 85.3798 110.162 89.4107 112.664 89.1497C110.507 91.7876 109.311 98.4605 98.1403 96.6832C98.1403 96.6832 107.74 105.705 119.435 98.9259C125.451 95.4382 131.081 88.6656 133.192 82.1077C135.329 75.4736 136.953 68.8481 135.813 61.82C135.151 57.74 133.661 54.1129 131.555 50.9455Z" fill="#DE176C"/>
<path d="M99.0723 57.6201C104.146 59.0762 109.536 59.4559 114.43 61.5255C120.141 63.9407 124.752 69.4273 124.646 75.8667C124.582 79.6998 121.59 86.2978 113.578 88.0549C117.072 87.77 120.648 85.6836 122.648 83.1429C126.612 78.108 125.592 71.179 121.826 66.3539C114.447 56.9 100.811 60.3558 91.859 53.6285C86.4137 49.5363 84.7426 42.5253 85.2434 35.9972C85.0457 36.0546 84.8467 36.1087 84.6511 36.1709C84.3368 40.5 84.9376 44.9421 87.0054 48.7934C89.5406 53.5149 94.0522 56.1795 99.0723 57.6201Z" fill="#C30952"/>
<path d="M78.3644 57.1444C75.8146 53.7687 74.8746 49.439 76.1745 45.37C77.3138 41.8042 79.8442 38.8868 82.9903 36.9384C79.4169 40.2421 78.6849 45.1443 80.2372 49.8126C81.0749 52.3318 82.4563 54.6711 84.2176 56.6545C85.8769 58.5227 87.7333 59.731 89.8685 60.6847C88.6603 60.0997 86.8625 58.7247 84.741 56.3793C83.0689 54.5305 81.745 52.3409 80.907 49.9924C79.1626 45.1057 79.9444 39.781 84.3027 36.5821C84.4202 36.4959 84.4433 36.3659 84.4123 36.2532C84.0393 36.3762 83.6709 36.508 83.308 36.6495C82.398 37.0037 81.5248 37.4192 80.7007 37.9009C75.298 42.4721 73.0838 50.1127 77.2418 56.547C80.0201 60.8463 85.4781 63.7575 89.0816 64.4005C89.1469 64.0932 83.4143 63.8292 78.3644 57.1444Z" fill="#C30952"/>
<path d="M131.118 67.3012C131.008 66.9488 130.452 67.0992 130.563 67.4543C132.329 73.1131 131.945 78.9663 130.291 84.5169C130.106 84.9768 129.887 85.4266 129.695 85.8461C128.909 87.5558 127.97 89.1971 126.91 90.7513C123.936 95.115 117.191 101.164 110.817 102.28C114.526 101.71 118.045 100.237 121.142 97.8292C124.159 95.4847 126.655 92.4677 128.595 89.1634C127.585 91.5034 126.378 93.7583 125.049 95.8856C122.665 99.6983 119.705 102.901 116.827 106.316C115.976 107.326 114.904 109.602 115.09 109.451C116.302 107.171 117.952 105.986 119.937 103.722C122.873 100.372 125.447 96.6817 127.525 92.7393C128.83 90.2614 129.938 87.6417 130.759 84.9455C130.96 84.4595 131.125 83.966 131.197 83.48C131.2 83.4554 131.194 83.4341 131.193 83.4114C132.564 78.1343 132.776 72.6116 131.118 67.3012Z" fill="#C30952"/>
<path d="M130.204 92.2053C129.24 94.5477 129.461 100.505 130.106 101.455C129.631 100.379 128.37 95.5339 130.204 92.2053Z" fill="#C30952"/>
<path d="M70.6899 12.9472C70.7728 15.8099 71.4361 18.4296 73.1811 20.6982C77.1235 25.7691 80.9138 28.3935 86.0508 30.204C94.825 33.2963 103.592 34.2823 112.204 37.9562C126.838 44.2 141.176 54.7313 148.22 69.1813C152.248 77.4431 152.581 86.8208 152.927 94.2467C153.809 99.2233 161.392 97.065 161.143 96.9942C153.472 94.7809 155.187 95.2081 154.893 92.37C154.057 85.1707 153.873 75.1575 149.682 67.2095C142.364 53.3286 128.872 43.3099 114.71 37.1379C106.315 33.4782 97.3135 32.2822 88.7298 29.2573C83.7043 27.486 81.5644 25.8921 76.7533 21.5736C74.734 19.6852 73.4865 15.0767 73.4054 12.2763C73.3155 9.16553 74.8805 6.08479 74.7978 2.97398C74.7514 1.22692 74.4345 -0.516756 72.4548 0.142641C72.0269 0.285395 72.4122 0.769498 71.993 0.970268C72.3311 1.48023 72.0711 3.84151 72.0927 4.65187C72.1771 7.83162 70.5979 9.76717 70.6899 12.9472Z" fill="#6F1B84"/>
</svg>
